<mxfile host="app.diagrams.net" agent="Mozilla/5.0 (Windows NT 10.0; Win64; x64; rv:134.0) Gecko/20100101 Firefox/134.0" version="26.0.6" pages="4">
  <diagram name="INICIO" id="Cozzs85DteCYrAkZqh-c">
    <mxGraphModel grid="1" page="1" gridSize="10" guides="1" tooltips="1" connect="1" arrows="1" fold="1" pageScale="1" pageWidth="827" pageHeight="1169" math="0" shadow="0">
      <root>
        <mxCell id="0" />
        <mxCell id="1" parent="0" />
        <mxCell id="B2I3VNoj47IHilGdY1ZL-2" value="" style="edgeStyle=orthogonalEdgeStyle;rounded=0;orthogonalLoop=1;jettySize=auto;html=1;" edge="1" parent="1" source="KxcAYdlZ9_Sw9-Rx3Z2J-1" target="B2I3VNoj47IHilGdY1ZL-1">
          <mxGeometry relative="1" as="geometry" />
        </mxCell>
        <mxCell id="KxcAYdlZ9_Sw9-Rx3Z2J-1" value="INÍCIO" style="strokeWidth=2;html=1;shape=mxgraph.flowchart.start_1;whiteSpace=wrap;" vertex="1" parent="1">
          <mxGeometry x="325" y="60" width="100" height="60" as="geometry" />
        </mxCell>
        <mxCell id="KxcAYdlZ9_Sw9-Rx3Z2J-2" value="FIM" style="strokeWidth=2;html=1;shape=mxgraph.flowchart.start_1;whiteSpace=wrap;" vertex="1" parent="1">
          <mxGeometry x="325" y="814.5" width="100" height="60" as="geometry" />
        </mxCell>
        <mxCell id="KxcAYdlZ9_Sw9-Rx3Z2J-9" value="" style="edgeStyle=orthogonalEdgeStyle;rounded=0;orthogonalLoop=1;jettySize=auto;html=1;" edge="1" parent="1" source="KxcAYdlZ9_Sw9-Rx3Z2J-4" target="KxcAYdlZ9_Sw9-Rx3Z2J-6">
          <mxGeometry relative="1" as="geometry" />
        </mxCell>
        <UserObject label="INICIALIZAR" link="data:page/id,cszuJp9LbXhTBSXzNLWZ" id="KxcAYdlZ9_Sw9-Rx3Z2J-4">
          <mxCell style="shape=process;whiteSpace=wrap;html=1;backgroundOutline=1;" vertex="1" parent="1">
            <mxGeometry x="315" y="390" width="120" height="60" as="geometry" />
          </mxCell>
        </UserObject>
        <mxCell id="KxcAYdlZ9_Sw9-Rx3Z2J-10" value="" style="edgeStyle=orthogonalEdgeStyle;rounded=0;orthogonalLoop=1;jettySize=auto;html=1;" edge="1" parent="1" source="KxcAYdlZ9_Sw9-Rx3Z2J-6" target="KxcAYdlZ9_Sw9-Rx3Z2J-7">
          <mxGeometry relative="1" as="geometry" />
        </mxCell>
        <UserObject label="PROCESSAR" link="data:page/id,b0hhp7a6Ul5gBypwG9t9" id="KxcAYdlZ9_Sw9-Rx3Z2J-6">
          <mxCell style="shape=process;whiteSpace=wrap;html=1;backgroundOutline=1;" vertex="1" parent="1">
            <mxGeometry x="315" y="510" width="120" height="60" as="geometry" />
          </mxCell>
        </UserObject>
        <mxCell id="KxcAYdlZ9_Sw9-Rx3Z2J-11" value="" style="edgeStyle=orthogonalEdgeStyle;rounded=0;orthogonalLoop=1;jettySize=auto;html=1;" edge="1" parent="1" source="KxcAYdlZ9_Sw9-Rx3Z2J-7" target="KxcAYdlZ9_Sw9-Rx3Z2J-2">
          <mxGeometry relative="1" as="geometry" />
        </mxCell>
        <UserObject label="FINALIZAR" link="data:page/id,4ZztB-suaTnJA8P6syI5" id="KxcAYdlZ9_Sw9-Rx3Z2J-7">
          <mxCell style="shape=process;whiteSpace=wrap;html=1;backgroundOutline=1;" vertex="1" parent="1">
            <mxGeometry x="315" y="660" width="120" height="60" as="geometry" />
          </mxCell>
        </UserObject>
        <mxCell id="B2I3VNoj47IHilGdY1ZL-3" value="" style="edgeStyle=orthogonalEdgeStyle;rounded=0;orthogonalLoop=1;jettySize=auto;html=1;" edge="1" parent="1" source="B2I3VNoj47IHilGdY1ZL-1" target="KxcAYdlZ9_Sw9-Rx3Z2J-4">
          <mxGeometry relative="1" as="geometry" />
        </mxCell>
        <mxCell id="B2I3VNoj47IHilGdY1ZL-1" value="&lt;div&gt;TOTOPER=0&lt;/div&gt;&lt;div&gt;NUM1&lt;/div&gt;&lt;div&gt;NUM2&lt;br&gt;&lt;/div&gt;" style="shape=parallelogram;html=1;strokeWidth=2;perimeter=parallelogramPerimeter;whiteSpace=wrap;rounded=1;arcSize=12;size=0.23;" vertex="1" parent="1">
          <mxGeometry x="290" y="230" width="170" height="80" as="geometry" />
        </mxCell>
      </root>
    </mxGraphModel>
  </diagram>
  <diagram id="cszuJp9LbXhTBSXzNLWZ" name="INICIALIZAR">
    <mxGraphModel grid="1" page="1" gridSize="10" guides="1" tooltips="1" connect="1" arrows="1" fold="1" pageScale="1" pageWidth="827" pageHeight="1169" math="0" shadow="0">
      <root>
        <mxCell id="0" />
        <mxCell id="1" parent="0" />
        <mxCell id="7Qwf6OdA3ganBVEpThTP-1" value="" style="edgeStyle=orthogonalEdgeStyle;rounded=0;orthogonalLoop=1;jettySize=auto;html=1;" edge="1" parent="1" source="W69cQlJcS3uOSGDLcc-J-2" target="W69cQlJcS3uOSGDLcc-J-6">
          <mxGeometry relative="1" as="geometry" />
        </mxCell>
        <mxCell id="W69cQlJcS3uOSGDLcc-J-2" value="INICIALIZAR" style="strokeWidth=2;html=1;shape=mxgraph.flowchart.start_1;whiteSpace=wrap;" vertex="1" parent="1">
          <mxGeometry x="280" y="40" width="100" height="60" as="geometry" />
        </mxCell>
        <mxCell id="W69cQlJcS3uOSGDLcc-J-5" value="" style="edgeStyle=orthogonalEdgeStyle;rounded=0;orthogonalLoop=1;jettySize=auto;html=1;" edge="1" parent="1" source="W69cQlJcS3uOSGDLcc-J-6" target="W69cQlJcS3uOSGDLcc-J-7">
          <mxGeometry relative="1" as="geometry" />
        </mxCell>
        <mxCell id="W69cQlJcS3uOSGDLcc-J-6" value="&lt;div&gt;&lt;br&gt;&lt;/div&gt;&lt;div&gt;NUM1&lt;/div&gt;&lt;div&gt;NUM2&lt;br&gt;&lt;/div&gt;" style="html=1;strokeWidth=2;shape=manualInput;whiteSpace=wrap;rounded=1;size=26;arcSize=11;" vertex="1" parent="1">
          <mxGeometry x="280" y="190" width="100" height="60" as="geometry" />
        </mxCell>
        <mxCell id="W69cQlJcS3uOSGDLcc-J-7" value="FIM" style="strokeWidth=2;html=1;shape=mxgraph.flowchart.start_1;whiteSpace=wrap;" vertex="1" parent="1">
          <mxGeometry x="280" y="440" width="100" height="60" as="geometry" />
        </mxCell>
      </root>
    </mxGraphModel>
  </diagram>
  <diagram id="b0hhp7a6Ul5gBypwG9t9" name="PROCESSAR">
    <mxGraphModel grid="1" page="1" gridSize="10" guides="1" tooltips="1" connect="1" arrows="1" fold="1" pageScale="1" pageWidth="827" pageHeight="1169" math="0" shadow="0">
      <root>
        <mxCell id="0" />
        <mxCell id="1" parent="0" />
        <mxCell id="Hay6hfbA5wcl8jdnw1vJ-3" value="" style="edgeStyle=orthogonalEdgeStyle;rounded=0;orthogonalLoop=1;jettySize=auto;html=1;" edge="1" parent="1" source="T3J0XF7J3IPTpjWUrlcZ-2" target="Hay6hfbA5wcl8jdnw1vJ-1">
          <mxGeometry relative="1" as="geometry" />
        </mxCell>
        <mxCell id="T3J0XF7J3IPTpjWUrlcZ-2" value="PROCESSAR" style="strokeWidth=2;html=1;shape=mxgraph.flowchart.start_1;whiteSpace=wrap;" vertex="1" parent="1">
          <mxGeometry x="40" y="20" width="100" height="60" as="geometry" />
        </mxCell>
        <mxCell id="T3J0XF7J3IPTpjWUrlcZ-3" value="FIM" style="strokeWidth=2;html=1;shape=mxgraph.flowchart.start_1;whiteSpace=wrap;" vertex="1" parent="1">
          <mxGeometry x="40" y="910" width="100" height="60" as="geometry" />
        </mxCell>
        <mxCell id="T3J0XF7J3IPTpjWUrlcZ-4" value="" style="edgeStyle=orthogonalEdgeStyle;rounded=0;orthogonalLoop=1;jettySize=auto;html=1;" edge="1" parent="1" source="T3J0XF7J3IPTpjWUrlcZ-5" target="T3J0XF7J3IPTpjWUrlcZ-7">
          <mxGeometry relative="1" as="geometry" />
        </mxCell>
        <mxCell id="T3J0XF7J3IPTpjWUrlcZ-5" value="SOMA" style="shape=process;whiteSpace=wrap;html=1;backgroundOutline=1;" vertex="1" parent="1">
          <mxGeometry x="30" y="342" width="120" height="60" as="geometry" />
        </mxCell>
        <mxCell id="T3J0XF7J3IPTpjWUrlcZ-6" value="" style="edgeStyle=orthogonalEdgeStyle;rounded=0;orthogonalLoop=1;jettySize=auto;html=1;" edge="1" parent="1" source="T3J0XF7J3IPTpjWUrlcZ-7" target="T3J0XF7J3IPTpjWUrlcZ-9">
          <mxGeometry relative="1" as="geometry" />
        </mxCell>
        <mxCell id="T3J0XF7J3IPTpjWUrlcZ-7" value="SUBTRACAO" style="shape=process;whiteSpace=wrap;html=1;backgroundOutline=1;" vertex="1" parent="1">
          <mxGeometry x="30" y="462" width="120" height="60" as="geometry" />
        </mxCell>
        <mxCell id="Hay6hfbA5wcl8jdnw1vJ-5" value="" style="edgeStyle=orthogonalEdgeStyle;rounded=0;orthogonalLoop=1;jettySize=auto;html=1;" edge="1" parent="1" source="T3J0XF7J3IPTpjWUrlcZ-9" target="Hay6hfbA5wcl8jdnw1vJ-2">
          <mxGeometry relative="1" as="geometry" />
        </mxCell>
        <mxCell id="T3J0XF7J3IPTpjWUrlcZ-9" value="DIVISAO" style="shape=process;whiteSpace=wrap;html=1;backgroundOutline=1;" vertex="1" parent="1">
          <mxGeometry x="30" y="612" width="120" height="60" as="geometry" />
        </mxCell>
        <mxCell id="Hay6hfbA5wcl8jdnw1vJ-4" value="" style="edgeStyle=orthogonalEdgeStyle;rounded=0;orthogonalLoop=1;jettySize=auto;html=1;" edge="1" parent="1" source="Hay6hfbA5wcl8jdnw1vJ-1" target="T3J0XF7J3IPTpjWUrlcZ-5">
          <mxGeometry relative="1" as="geometry" />
        </mxCell>
        <mxCell id="Hay6hfbA5wcl8jdnw1vJ-1" value="NUM1&lt;br&gt;NUM2" style="strokeWidth=2;html=1;shape=mxgraph.flowchart.display;whiteSpace=wrap;" vertex="1" parent="1">
          <mxGeometry x="40" y="170" width="100" height="60" as="geometry" />
        </mxCell>
        <mxCell id="Hay6hfbA5wcl8jdnw1vJ-6" value="" style="edgeStyle=orthogonalEdgeStyle;rounded=0;orthogonalLoop=1;jettySize=auto;html=1;" edge="1" parent="1" source="Hay6hfbA5wcl8jdnw1vJ-2" target="T3J0XF7J3IPTpjWUrlcZ-3">
          <mxGeometry relative="1" as="geometry" />
        </mxCell>
        <mxCell id="Hay6hfbA5wcl8jdnw1vJ-2" value="MULTIPLICACAO" style="shape=process;whiteSpace=wrap;html=1;backgroundOutline=1;" vertex="1" parent="1">
          <mxGeometry x="30" y="760" width="120" height="60" as="geometry" />
        </mxCell>
        <mxCell id="Hay6hfbA5wcl8jdnw1vJ-11" value="" style="edgeStyle=orthogonalEdgeStyle;rounded=0;orthogonalLoop=1;jettySize=auto;html=1;" edge="1" parent="1" source="Hay6hfbA5wcl8jdnw1vJ-7" target="Hay6hfbA5wcl8jdnw1vJ-10">
          <mxGeometry relative="1" as="geometry" />
        </mxCell>
        <mxCell id="Hay6hfbA5wcl8jdnw1vJ-7" value="SOMA" style="strokeWidth=2;html=1;shape=mxgraph.flowchart.start_1;whiteSpace=wrap;" vertex="1" parent="1">
          <mxGeometry x="210" y="20" width="100" height="60" as="geometry" />
        </mxCell>
        <mxCell id="Hay6hfbA5wcl8jdnw1vJ-13" value="" style="edgeStyle=orthogonalEdgeStyle;rounded=0;orthogonalLoop=1;jettySize=auto;html=1;" edge="1" parent="1" source="Hay6hfbA5wcl8jdnw1vJ-8" target="Hay6hfbA5wcl8jdnw1vJ-9">
          <mxGeometry relative="1" as="geometry" />
        </mxCell>
        <mxCell id="Hay6hfbA5wcl8jdnw1vJ-8" value="RES" style="strokeWidth=2;html=1;shape=mxgraph.flowchart.display;whiteSpace=wrap;" vertex="1" parent="1">
          <mxGeometry x="210" y="270" width="100" height="60" as="geometry" />
        </mxCell>
        <mxCell id="Hay6hfbA5wcl8jdnw1vJ-9" value="FIM" style="strokeWidth=2;html=1;shape=mxgraph.flowchart.start_1;whiteSpace=wrap;" vertex="1" parent="1">
          <mxGeometry x="210" y="420" width="100" height="60" as="geometry" />
        </mxCell>
        <mxCell id="Hay6hfbA5wcl8jdnw1vJ-12" value="" style="edgeStyle=orthogonalEdgeStyle;rounded=0;orthogonalLoop=1;jettySize=auto;html=1;" edge="1" parent="1" source="Hay6hfbA5wcl8jdnw1vJ-10" target="Hay6hfbA5wcl8jdnw1vJ-8">
          <mxGeometry relative="1" as="geometry" />
        </mxCell>
        <mxCell id="Hay6hfbA5wcl8jdnw1vJ-10" value="&lt;div&gt;RES = NUM1 + NUM2&lt;/div&gt;&lt;div&gt;TOTOPER + 1&lt;br&gt;&lt;/div&gt;" style="rounded=1;whiteSpace=wrap;html=1;" vertex="1" parent="1">
          <mxGeometry x="187.5" y="140" width="145" height="40" as="geometry" />
        </mxCell>
        <mxCell id="Hay6hfbA5wcl8jdnw1vJ-14" value="" style="edgeStyle=orthogonalEdgeStyle;rounded=0;orthogonalLoop=1;jettySize=auto;html=1;" edge="1" parent="1" source="Hay6hfbA5wcl8jdnw1vJ-15" target="Hay6hfbA5wcl8jdnw1vJ-20">
          <mxGeometry relative="1" as="geometry" />
        </mxCell>
        <mxCell id="Hay6hfbA5wcl8jdnw1vJ-15" value="SUBTRACAO" style="strokeWidth=2;html=1;shape=mxgraph.flowchart.start_1;whiteSpace=wrap;" vertex="1" parent="1">
          <mxGeometry x="372.5" y="20" width="100" height="60" as="geometry" />
        </mxCell>
        <mxCell id="Hay6hfbA5wcl8jdnw1vJ-16" value="" style="edgeStyle=orthogonalEdgeStyle;rounded=0;orthogonalLoop=1;jettySize=auto;html=1;" edge="1" parent="1" source="Hay6hfbA5wcl8jdnw1vJ-17" target="Hay6hfbA5wcl8jdnw1vJ-18">
          <mxGeometry relative="1" as="geometry" />
        </mxCell>
        <mxCell id="Hay6hfbA5wcl8jdnw1vJ-17" value="RES" style="strokeWidth=2;html=1;shape=mxgraph.flowchart.display;whiteSpace=wrap;" vertex="1" parent="1">
          <mxGeometry x="372.5" y="270" width="100" height="60" as="geometry" />
        </mxCell>
        <mxCell id="Hay6hfbA5wcl8jdnw1vJ-18" value="FIM" style="strokeWidth=2;html=1;shape=mxgraph.flowchart.start_1;whiteSpace=wrap;" vertex="1" parent="1">
          <mxGeometry x="372.5" y="420" width="100" height="60" as="geometry" />
        </mxCell>
        <mxCell id="Hay6hfbA5wcl8jdnw1vJ-19" value="" style="edgeStyle=orthogonalEdgeStyle;rounded=0;orthogonalLoop=1;jettySize=auto;html=1;" edge="1" parent="1" source="Hay6hfbA5wcl8jdnw1vJ-20" target="Hay6hfbA5wcl8jdnw1vJ-17">
          <mxGeometry relative="1" as="geometry" />
        </mxCell>
        <mxCell id="Hay6hfbA5wcl8jdnw1vJ-20" value="&lt;div&gt;RES = NUM1 - NUM2&lt;/div&gt;&lt;div&gt;TOTOPER + 1&lt;/div&gt;" style="rounded=1;whiteSpace=wrap;html=1;" vertex="1" parent="1">
          <mxGeometry x="350" y="140" width="145" height="40" as="geometry" />
        </mxCell>
        <mxCell id="Hay6hfbA5wcl8jdnw1vJ-21" value="" style="edgeStyle=orthogonalEdgeStyle;rounded=0;orthogonalLoop=1;jettySize=auto;html=1;" edge="1" parent="1" source="Hay6hfbA5wcl8jdnw1vJ-22" target="Hay6hfbA5wcl8jdnw1vJ-27">
          <mxGeometry relative="1" as="geometry" />
        </mxCell>
        <mxCell id="Hay6hfbA5wcl8jdnw1vJ-22" value="DIVISAO" style="strokeWidth=2;html=1;shape=mxgraph.flowchart.start_1;whiteSpace=wrap;" vertex="1" parent="1">
          <mxGeometry x="532.5" y="20" width="100" height="60" as="geometry" />
        </mxCell>
        <mxCell id="Hay6hfbA5wcl8jdnw1vJ-23" value="" style="edgeStyle=orthogonalEdgeStyle;rounded=0;orthogonalLoop=1;jettySize=auto;html=1;" edge="1" parent="1" source="Hay6hfbA5wcl8jdnw1vJ-24" target="Hay6hfbA5wcl8jdnw1vJ-25">
          <mxGeometry relative="1" as="geometry" />
        </mxCell>
        <mxCell id="Hay6hfbA5wcl8jdnw1vJ-24" value="RES" style="strokeWidth=2;html=1;shape=mxgraph.flowchart.display;whiteSpace=wrap;" vertex="1" parent="1">
          <mxGeometry x="532.5" y="270" width="100" height="60" as="geometry" />
        </mxCell>
        <mxCell id="Hay6hfbA5wcl8jdnw1vJ-25" value="FIM" style="strokeWidth=2;html=1;shape=mxgraph.flowchart.start_1;whiteSpace=wrap;" vertex="1" parent="1">
          <mxGeometry x="532.5" y="420" width="100" height="60" as="geometry" />
        </mxCell>
        <mxCell id="Hay6hfbA5wcl8jdnw1vJ-26" value="" style="edgeStyle=orthogonalEdgeStyle;rounded=0;orthogonalLoop=1;jettySize=auto;html=1;" edge="1" parent="1" source="Hay6hfbA5wcl8jdnw1vJ-27" target="Hay6hfbA5wcl8jdnw1vJ-24">
          <mxGeometry relative="1" as="geometry" />
        </mxCell>
        <mxCell id="Hay6hfbA5wcl8jdnw1vJ-27" value="&lt;div&gt;RES = NUM1 / NUM2&lt;/div&gt;&lt;div&gt;TOTOPER + 1&lt;/div&gt;" style="rounded=1;whiteSpace=wrap;html=1;" vertex="1" parent="1">
          <mxGeometry x="510" y="140" width="145" height="40" as="geometry" />
        </mxCell>
        <mxCell id="Hay6hfbA5wcl8jdnw1vJ-35" value="" style="edgeStyle=orthogonalEdgeStyle;rounded=0;orthogonalLoop=1;jettySize=auto;html=1;" edge="1" parent="1" source="Hay6hfbA5wcl8jdnw1vJ-36" target="Hay6hfbA5wcl8jdnw1vJ-41">
          <mxGeometry relative="1" as="geometry" />
        </mxCell>
        <mxCell id="Hay6hfbA5wcl8jdnw1vJ-36" value="MULTIPLICACAO" style="strokeWidth=2;html=1;shape=mxgraph.flowchart.start_1;whiteSpace=wrap;" vertex="1" parent="1">
          <mxGeometry x="692.5" y="20" width="100" height="60" as="geometry" />
        </mxCell>
        <mxCell id="Hay6hfbA5wcl8jdnw1vJ-37" value="" style="edgeStyle=orthogonalEdgeStyle;rounded=0;orthogonalLoop=1;jettySize=auto;html=1;" edge="1" parent="1" source="Hay6hfbA5wcl8jdnw1vJ-38" target="Hay6hfbA5wcl8jdnw1vJ-39">
          <mxGeometry relative="1" as="geometry" />
        </mxCell>
        <mxCell id="Hay6hfbA5wcl8jdnw1vJ-38" value="RES" style="strokeWidth=2;html=1;shape=mxgraph.flowchart.display;whiteSpace=wrap;" vertex="1" parent="1">
          <mxGeometry x="692.5" y="270" width="100" height="60" as="geometry" />
        </mxCell>
        <mxCell id="Hay6hfbA5wcl8jdnw1vJ-39" value="FIM" style="strokeWidth=2;html=1;shape=mxgraph.flowchart.start_1;whiteSpace=wrap;" vertex="1" parent="1">
          <mxGeometry x="692.5" y="420" width="100" height="60" as="geometry" />
        </mxCell>
        <mxCell id="Hay6hfbA5wcl8jdnw1vJ-40" value="" style="edgeStyle=orthogonalEdgeStyle;rounded=0;orthogonalLoop=1;jettySize=auto;html=1;" edge="1" parent="1" source="Hay6hfbA5wcl8jdnw1vJ-41" target="Hay6hfbA5wcl8jdnw1vJ-38">
          <mxGeometry relative="1" as="geometry" />
        </mxCell>
        <mxCell id="Hay6hfbA5wcl8jdnw1vJ-41" value="RES = NUM1 * NUM2&lt;br&gt;TOTOPER + 1" style="rounded=1;whiteSpace=wrap;html=1;" vertex="1" parent="1">
          <mxGeometry x="670" y="140" width="145" height="40" as="geometry" />
        </mxCell>
      </root>
    </mxGraphModel>
  </diagram>
  <diagram id="4ZztB-suaTnJA8P6syI5" name="FINALIZAR">
    <mxGraphModel grid="1" page="1" gridSize="10" guides="1" tooltips="1" connect="1" arrows="1" fold="1" pageScale="1" pageWidth="827" pageHeight="1169" math="0" shadow="0">
      <root>
        <mxCell id="0" />
        <mxCell id="1" parent="0" />
        <mxCell id="vbC0QnjO7cfVsOHK2Xj8-4" value="" style="edgeStyle=orthogonalEdgeStyle;rounded=0;orthogonalLoop=1;jettySize=auto;html=1;" edge="1" parent="1" source="vbC0QnjO7cfVsOHK2Xj8-1" target="vbC0QnjO7cfVsOHK2Xj8-3">
          <mxGeometry relative="1" as="geometry" />
        </mxCell>
        <mxCell id="vbC0QnjO7cfVsOHK2Xj8-1" value="FINALIZAR" style="strokeWidth=2;html=1;shape=mxgraph.flowchart.start_1;whiteSpace=wrap;" vertex="1" parent="1">
          <mxGeometry x="280" y="40" width="100" height="60" as="geometry" />
        </mxCell>
        <mxCell id="vbC0QnjO7cfVsOHK2Xj8-2" value="FIM" style="strokeWidth=2;html=1;shape=mxgraph.flowchart.start_1;whiteSpace=wrap;" vertex="1" parent="1">
          <mxGeometry x="280" y="340" width="100" height="60" as="geometry" />
        </mxCell>
        <mxCell id="vbC0QnjO7cfVsOHK2Xj8-5" value="" style="edgeStyle=orthogonalEdgeStyle;rounded=0;orthogonalLoop=1;jettySize=auto;html=1;" edge="1" parent="1" source="vbC0QnjO7cfVsOHK2Xj8-3" target="vbC0QnjO7cfVsOHK2Xj8-2">
          <mxGeometry relative="1" as="geometry" />
        </mxCell>
        <mxCell id="vbC0QnjO7cfVsOHK2Xj8-3" value="TOTOPER" style="strokeWidth=2;html=1;shape=mxgraph.flowchart.display;whiteSpace=wrap;" vertex="1" parent="1">
          <mxGeometry x="280" y="180" width="100" height="60" as="geometry" />
        </mxCell>
      </root>
    </mxGraphModel>
  </diagram>
</mxfile>
